<svg width="32" height="32" viewBox="0 0 32 32" fill="none" xmlns="http://www.w3.org/2000/svg">
<g id="fluent-emoji-flat:check-mark-button">
<g id="Group">
<path id="Vector" d="M2 6C2 4.93913 2.42143 3.92172 3.17157 3.17157C3.92172 2.42143 4.93913 2 6 2H26C27.0609 2 28.0783 2.42143 28.8284 3.17157C29.5786 3.92172 30 4.93913 30 6V26C30 27.0609 29.5786 28.0783 28.8284 28.8284C28.0783 29.5786 27.0609 30 26 30H6C4.93913 30 3.92172 29.5786 3.17157 28.8284C2.42143 28.0783 2 27.0609 2 26V6Z" fill="#00D26A"/>
<path id="Vector_2" d="M13.2423 23.0001C12.8593 23.0001 12.4763 22.8571 12.1833 22.5701L6.43928 16.9281C6.30055 16.7927 6.1903 16.631 6.11503 16.4523C6.03975 16.2737 6.00098 16.0819 6.00098 15.8881C6.00098 15.6942 6.03975 15.5024 6.11503 15.3238C6.1903 15.1452 6.30055 14.9834 6.43928 14.8481C6.72259 14.5718 7.1026 14.4172 7.49828 14.4172C7.89396 14.4172 8.27397 14.5718 8.55728 14.8481L13.2423 19.4491L23.4433 9.43105C23.7266 9.15484 24.1066 9.00024 24.5023 9.00024C24.898 9.00024 25.278 9.15484 25.5613 9.43105C25.7001 9.56634 25.8105 9.72806 25.8858 9.90668C25.9612 10.0853 26 10.2772 26 10.4711C26 10.6649 25.9612 10.8568 25.8858 11.0354C25.8105 11.214 25.7001 11.3758 25.5613 11.5111L14.3013 22.5691C14.0188 22.8466 13.6383 23.0015 13.2423 23.0001Z" fill="#F4F4F4"/>
</g>
</g>
</svg>
