<svg width="23" height="24" viewBox="0 0 23 24" fill="none" xmlns="http://www.w3.org/2000/svg">
<g id="material-symbols:search-rounded">
<path id="Vector" d="M15.2375 21.5789L9.87083 16.2123C9.39167 16.5956 8.84062 16.8991 8.21771 17.1227C7.59479 17.3463 6.93194 17.4581 6.22917 17.4581C4.48819 17.4581 3.01492 16.855 1.80933 15.6488C0.60375 14.4425 0.000638889 12.9693 0 11.2289C0 9.48795 0.603111 8.01467 1.80933 6.80909C3.01556 5.60351 4.48883 5.00039 6.22917 4.99976C7.97014 4.99976 9.44342 5.60287 10.649 6.80909C11.8546 8.01531 12.4577 9.48859 12.4583 11.2289C12.4583 11.9317 12.3465 12.5945 12.1229 13.2175C11.8993 13.8404 11.5958 14.3914 11.2125 14.8706L16.6031 20.2612C16.7788 20.4369 16.8667 20.6525 16.8667 20.9081C16.8667 21.1636 16.7708 21.3873 16.5792 21.5789C16.4035 21.7546 16.1799 21.8425 15.9083 21.8425C15.6368 21.8425 15.4132 21.7546 15.2375 21.5789ZM6.22917 15.5414C7.42708 15.5414 8.44547 15.122 9.28433 14.2831C10.1232 13.4443 10.5423 12.4262 10.5417 11.2289C10.5417 10.031 10.1222 9.01262 9.28337 8.17376C8.44451 7.33489 7.42644 6.91578 6.22917 6.91642C5.03125 6.91642 4.01286 7.33585 3.174 8.17471C2.33514 9.01358 1.91603 10.0316 1.91667 11.2289C1.91667 12.4268 2.3361 13.4452 3.17496 14.2841C4.01382 15.1229 5.03189 15.5421 6.22917 15.5414Z" fill="#848484"/>
</g>
</svg>
